<?xml version="1.0" encoding="UTF-8"?>
<!DOCTYPE svg PUBLIC "-//W3C//DTD SVG 1.1//EN" "http://www.w3.org/Graphics/SVG/1.1/DTD/svg11.dtd">
<!-- Creator: CorelDRAW -->
<svg xmlns="http://www.w3.org/2000/svg" xml:space="preserve" width="900px" height="900px" version="1.1" style="shape-rendering:geometricPrecision; text-rendering:geometricPrecision; image-rendering:optimizeQuality; fill-rule:evenodd; clip-rule:evenodd"
viewBox="0 0 900 900"
 xmlns:xlink="http://www.w3.org/1999/xlink"
 xmlns:xodm="http://www.corel.com/coreldraw/odm/2003">
 <defs>
  <style type="text/css">
   <![CDATA[
    .fil1 {fill:#151526}
    .fil0 {fill:#4A4A6B}
    .fil2 {fill:white}
   ]]>
  </style>
 </defs>
 <g id="Capa_x0020_1">
  <metadata id="CorelCorpID_0Corel-Layer"/>
  <circle class="fil0" cx="450" cy="450" r="450"/>
  <circle class="fil1" cx="450" cy="450" r="393.39"/>
  <path class="fil2" d="M428.31 142.18c-27.58,0 -49.98,22.53 -50.21,50.06 -18.8,5.15 -36.75,12.31 -53.66,21.25 -2.64,-2.65 -5.33,-5.33 -11.65,-11.66 -19.6,-19.59 -51.7,-19.59 -71.31,0 -9.04,9.05 -19.04,19.05 -28.08,28.09 -19.6,19.6 -19.6,51.65 0,71.25 4.87,4.87 6.46,6.44 8.8,8.78 -12.83,20.95 -22.85,43.72 -29.53,67.95l-0.08 0c-27.72,0 -50.36,22.7 -50.36,50.43l0 39.65c0,27.73 22.64,50.43 50.36,50.43l0.08 0c6.68,24.25 16.69,46.99 29.53,67.95 -2.34,2.34 -3.92,3.91 -8.8,8.78 -19.6,19.6 -19.6,51.72 0,71.33 9.04,9.03 19.04,19.02 28.08,28.06 19.61,19.6 51.71,19.6 71.31,0 6.09,-6.09 8.47,-8.45 11.23,-11.21 8.5,4.51 17.06,8.89 26.08,12.47 5.1,2.02 10.88,-0.48 12.9,-5.58 2.02,-5.1 -0.47,-10.88 -5.57,-12.9 -10.58,-4.19 -20.76,-9.1 -30.57,-14.66 -3.89,-2.21 -8.78,-1.55 -11.94,1.63 0,0 -7.4,7.4 -16.19,16.19 -12.01,12.01 -31.16,12.01 -43.17,0 -9.04,-9.05 -19.03,-19.04 -28.08,-28.08 -12.01,-12.02 -12.01,-31.16 0,-43.17 7.44,-7.44 13.42,-13.42 13.42,-13.42 3.3,-3.34 3.82,-8.53 1.24,-12.45 -15.31,-23.29 -26.77,-49.33 -33.5,-77.18 -1.06,-4.48 -5.07,-7.63 -9.67,-7.62l-6.38 0c-16.99,0 -30.56,-13.58 -30.56,-30.57l0 -39.66c0,-16.99 13.57,-30.56 30.56,-30.56l6.38 0c4.6,0.01 8.6,-3.14 9.67,-7.62 6.73,-27.85 18.19,-53.81 33.49,-77.1 2.63,-3.94 2.11,-9.19 -1.24,-12.53 0,0 -5.98,-5.91 -13.42,-13.35 -12,-12 -12.01,-31.23 0,-43.24 9.05,-9.04 19.04,-19.03 28.09,-28.08 12.01,-12.01 31.16,-12.01 43.16,0 8.8,8.79 16.19,16.21 16.19,16.21 3.17,3.17 8.06,3.83 11.95,1.61 19.61,-11.12 40.88,-19.65 63.34,-25.07 4.45,-1.07 7.59,-5.03 7.62,-9.6l0 -6.38c0,-16.99 13.5,-30.57 30.49,-30.57l43.38 0c16.99,0 30.51,13.58 30.51,30.57l0 6.38c0.03,4.57 3.17,8.54 7.62,9.6 22.45,5.42 43.71,13.95 63.32,25.07 3.89,2.22 8.78,1.56 11.94,-1.61 0,0 7.42,-7.42 16.21,-16.21 12.01,-12.01 31.16,-12.01 43.17,0 9.04,9.05 19.01,19.04 28.06,28.08 12.01,12.02 12.01,31.24 0,43.25 -7.44,7.44 -13.4,13.34 -13.4,13.34 -3.35,3.34 -3.88,8.58 -1.26,12.53 15.31,23.29 26.79,49.25 33.51,77.1 1.07,4.48 5.08,7.63 9.68,7.62l6.36 0c16.99,0 30.57,13.58 30.57,30.57l0 39.65c0,16.99 -13.58,30.57 -30.57,30.57l-6.36 0c-4.6,-0.01 -8.61,3.14 -9.68,7.62 -6.72,27.85 -18.2,53.89 -33.51,77.18 -2.58,3.93 -2.05,9.12 1.26,12.45 0,0 5.97,5.98 13.4,13.42 12.01,12.01 12.01,31.15 0,43.17 -9.05,9.04 -19.02,19.03 -28.06,28.08 -12.02,12.01 -31.16,12.01 -43.17,0 -8.79,-8.79 -16.21,-16.19 -16.21,-16.19 -3.16,-3.18 -8.05,-3.84 -11.94,-1.63 -9.81,5.56 -14.06,7.51 -24.63,11.7 -5.1,2.03 -7.59,7.8 -5.57,12.9 2.02,5.11 7.79,7.61 12.9,5.59 9.01,-3.58 11.66,-5.02 20.16,-9.52 2.76,2.76 5.12,5.12 11.21,11.21 19.6,19.6 51.7,19.6 71.31,0 9.04,-9.04 19.04,-19.03 28.08,-28.06 19.6,-19.61 19.6,-51.73 0,-71.33 -4.87,-4.87 -6.46,-6.44 -8.8,-8.78 12.84,-20.96 22.87,-43.7 29.55,-67.95l0.06 0c27.72,0 50.36,-22.7 50.36,-50.43l0 -39.65c0,-27.73 -22.64,-50.43 -50.36,-50.43l-0.06 0c-6.68,-24.23 -16.72,-47 -29.55,-67.95 2.34,-2.34 3.92,-3.91 8.8,-8.78 19.6,-19.6 19.6,-51.65 0,-71.25 -9.04,-9.04 -19.04,-19.04 -28.08,-28.09 -19.61,-19.59 -51.71,-19.59 -71.31,0 -6.32,6.33 -9.01,9.01 -11.65,11.66 -16.91,-8.94 -34.86,-16.1 -53.66,-21.25 -0.23,-27.53 -22.63,-50.06 -50.21,-50.06l-43.38 0zm36.8 197.99l-8.99 -7.92c-0.96,-0.78 -2.11,-2 -3.84,-1.21 -0.81,0.37 -2.58,2.09 -3.02,2.69 -2.07,2.87 3.11,7.5 5.62,10.85l7.52 9.49c2.33,2.81 3.11,3.96 6.05,-0.41l7.21 -10.05c4.53,-6.37 9.95,-13.49 14.24,-19.78 0.66,-0.97 1.66,-2.55 0.72,-3.89 -0.33,-0.46 -2.7,-2.4 -3.29,-2.68 -2.19,-1.05 -4.2,2.16 -6.31,4.67 -1.8,2.14 -3.47,4 -5.27,6.07l-10.64 12.17zm4.79 34.08c20.67,0 37.43,-16.76 37.43,-37.44 0,-20.68 -16.76,-37.44 -37.43,-37.44 -20.68,0 -37.44,16.76 -37.44,37.44 0,20.68 16.76,37.44 37.44,37.44zm0 -4.91c17.96,0 32.53,-14.56 32.53,-32.53 0,-17.97 -14.57,-32.53 -32.53,-32.53 -17.97,0 -32.54,14.56 -32.54,32.53 0,17.97 14.57,32.53 32.54,32.53zm-14.92 -89.47c-3.58,1.21 -4.03,4.8 -6.34,7.2 -0.85,2.07 -1.91,3.15 -4.48,3.61l-3.36 -0.05c-2.46,-0.04 -4.23,-0.21 -6.7,0.15 -2.79,1.63 -4.85,2.65 -5.09,6.86 -0.58,4.08 0.13,8.62 -2.88,10.34 -2.19,1.25 -7.31,3.21 -8.81,4.83 -3.05,3.28 -2.37,6.02 -0.72,10.06 1.56,3.8 3.6,6.06 0.84,9.89 -1.4,1.94 -4.65,5.66 -5.08,8.33 -1.46,9.06 10.89,7.97 9.48,16.98 -0.66,4.25 -1.85,8.29 0.5,11.4 2.21,2.93 5.28,2.94 9.47,3.86 5.38,1.17 4.88,2.26 6.54,7.17 1.29,3.84 2.12,6.55 5.66,7.73 5.99,2.01 11.54,-4.9 16.1,-0.36 1.08,1.08 2.29,2.22 3.45,3.25 2.29,2.02 4.74,4.84 9.45,2.61 5.19,-2.45 5.88,-8.76 12.52,-7.06 1.8,0.46 3.87,0.9 5.47,1.57 2.31,0.58 2.83,0.35 5.07,0.05 0.04,-0.05 0.03,-0.08 0.36,-0.29l1.7 -1.09c0.5,-0.43 1.13,-1.46 1.65,-1.64 4.12,-11.38 2.32,-10.63 10.58,-12.41 4.55,-0.98 9.01,-2.65 8.58,-8.47 -0.07,-0.91 -0.52,-4.24 -0.75,-4.9 -0.9,-6.11 0.16,-6.05 3.42,-8.88 1.14,-0.98 2.3,-1.82 3.39,-2.8 1.6,-1.45 1.41,-1.76 2.41,-3.78 1.13,-6.47 -4.79,-9.1 -6.14,-13.21 -1.44,-4.4 4.95,-9.8 2.97,-15.35 -1.78,-5.01 -9.02,-5.7 -11.4,-8.17 -3.07,-3.2 0.03,-10.63 -4.41,-14.9 -4.56,-4.38 -12.55,0.76 -16.13,-3.48 -2.83,-3.36 -4.18,-9.44 -9.79,-9.75 -5.34,-0.29 -9.61,6.23 -14.13,4.83l-6.33 -3.47c-2.18,-1.26 -5.92,-2.2 -7.07,-0.66zm83.42 117.81c17.97,15.55 30.27,37.69 30.27,63.34 0,4.59 -0.38,9.06 -1.08,13.42 -5.22,0.41 -30.6,2.39 -61.89,4.81 3.51,-3.38 6.76,-6.83 9.76,-10.1 17.83,-19.4 25.19,-45.44 22.94,-71.47zm-163.97 -17.95c-4.38,31.77 5.86,63.81 27.85,87.15 32.51,30.98 67.74,32.99 94.2,32.99 32.02,-2.47 48.19,-3.72 60.62,-4.69 -10.26,26.24 -23.45,53.94 -42.67,65.45 -3,1.79 -4.84,5.02 -4.84,8.51l0 119.17c0,8.45 -2.09,21.58 -9,31.59 -6.91,10.02 -17.94,18.04 -40.69,18.04 -22.75,0 -33.7,-8.02 -40.61,-18.04 -6.9,-10.01 -9.02,-23.14 -9.02,-31.59l0 -114.13c0.01,-3.98 -2.35,-7.58 -6.01,-9.15 -46.34,-19.75 -78.93,-65.63 -78.93,-119.25 0,-42.62 20.6,-80.31 52.33,-103.94 0.1,-0.09 0.22,-0.12 0.32,-0.15l0 -0.01c0.11,-0.02 0.22,0.01 0.33,0.09 0.27,0.18 0.36,0.4 0.29,0.72l-0.05 0.3c-0.38,2.29 -0.76,5.93 -1.48,12.39l-2.64 24.55zm3.32 -57.89c-4.01,0.03 -8.03,1.23 -11.46,3.59 -0.1,0.09 -0.2,0.15 -0.29,0.24 -36.7,27.23 -60.53,70.99 -60.53,120.11 0,58.8 35.4,108.16 84.94,132.53l0 110.02c0,11.41 2.32,28.07 12.53,42.88 10.21,14.81 29.02,26.61 56.96,26.61 27.94,0 46.81,-11.8 57.01,-26.61 10.22,-14.81 12.55,-31.47 12.55,-42.88l0 -115.66c27.45,-19.36 46.69,-52.92 55.93,-86.2l0.06 -0.3c2,-8.07 3.08,-16.48 3.08,-25.13 0,-34.37 -16.69,-65.03 -42.37,-84.09 -0.12,-0.09 -0.24,-0.15 -0.37,-0.24 -5.7,-3.9 -13.26,-3.96 -19.04,-0.15l0 0.02c-5.76,3.81 -8.75,10.81 -7.41,17.59l-0.07 -0.3c3.67,22.37 -3.13,45.17 -18.47,61.87 -9.53,10.4 -21.32,20.98 -31.72,24.62 -25.11,-1.97 -37.73,-11.51 -52.35,-27.01 -17.88,-18.98 -26.21,-45.05 -22.65,-70.88 0.03,-0.12 0.05,-0.24 0.08,-0.3 1.3,-12.39 2.48,-23.67 3.96,-35.84 1.59,-8.16 -1.92,-16.54 -8.86,-21.1l-0.02 -0.02c-3.47,-2.28 -7.47,-3.39 -11.49,-3.36l0 -0.01zm52.42 209.68c7.07,0 12.8,5.73 12.8,12.8 0,7.07 -5.73,12.8 -12.8,12.8 -7.07,0 -12.8,-5.73 -12.8,-12.8 0,-7.07 5.73,-12.8 12.8,-12.8zm29.76 133.98c12.64,0 22.88,10.24 22.88,22.88 0,12.64 -10.24,22.88 -22.88,22.88 -12.64,0 -22.88,-10.24 -22.88,-22.88 0,-12.64 10.24,-22.88 22.88,-22.88zm-9.59 -13.72c-2.3,0.77 -2.59,3.08 -4.08,4.62 -0.54,1.34 -1.22,2.03 -2.88,2.33l-2.15 -0.03c-1.59,-0.03 -2.72,-0.14 -4.31,0.09 -1.8,1.05 -3.12,1.71 -3.27,4.41 -0.38,2.62 0.08,5.54 -1.85,6.65 -1.41,0.8 -4.7,2.06 -5.67,3.1 -1.96,2.11 -1.52,3.87 -0.46,6.47 1,2.44 2.31,3.9 0.54,6.36 -0.9,1.24 -2.99,3.63 -3.27,5.35 -0.94,5.82 7,5.12 6.1,10.91 -0.43,2.74 -1.19,5.34 0.32,7.33 1.42,1.89 3.39,1.89 6.09,2.48 3.45,0.76 3.13,1.46 4.2,4.62 0.83,2.46 1.36,4.21 3.64,4.97 3.85,1.29 7.42,-3.15 10.35,-0.24 0.7,0.7 1.47,1.43 2.22,2.09 1.47,1.3 3.04,3.11 6.07,1.68 3.34,-1.58 3.78,-5.63 8.05,-4.54 1.16,0.3 2.49,0.58 3.52,1.01 1.48,0.38 1.82,0.22 3.25,0.03 0.03,-0.03 0.03,-0.05 0.24,-0.18l1.09 -0.7c0.32,-0.28 0.72,-0.94 1.06,-1.06 2.65,-7.32 1.49,-6.83 6.8,-7.97 2.93,-0.63 5.8,-1.71 5.52,-5.45 -0.05,-0.58 -0.34,-2.73 -0.48,-3.15 -0.59,-3.93 0.1,-3.89 2.2,-5.71 0.73,-0.63 1.47,-1.17 2.17,-1.8 1.03,-0.93 0.91,-1.13 1.55,-2.43 0.73,-4.16 -3.08,-5.85 -3.94,-8.49 -0.93,-2.83 3.18,-6.3 1.91,-9.87 -1.15,-3.22 -5.8,-3.66 -7.33,-5.25 -1.98,-2.06 0.02,-6.84 -2.84,-9.58 -2.93,-2.81 -8.07,0.49 -10.36,-2.24 -1.82,-2.16 -2.69,-6.06 -6.3,-6.26 -3.44,-0.19 -6.18,4 -9.08,3.1l-4.07 -2.23c-1.4,-0.81 -3.81,-1.42 -4.55,-0.42zm9.6 23.68c7.07,0 12.8,5.74 12.8,12.81 0,7.07 -5.73,12.8 -12.8,12.8 -7.07,0 -12.8,-5.73 -12.8,-12.8 0,-7.07 5.73,-12.81 12.8,-12.81zm0 -143.94c7.07,0 12.8,5.73 12.8,12.8 0,7.07 -5.73,12.8 -12.8,12.8 -7.07,0 -12.8,-5.73 -12.8,-12.8 0,-7.07 5.73,-12.8 12.8,-12.8zm29.77 0c7.07,0 12.8,5.73 12.8,12.8 0,7.07 -5.73,12.8 -12.8,12.8 -7.07,0 -12.81,-5.73 -12.81,-12.8 0,-7.07 5.74,-12.8 12.81,-12.8zm-39.7 -297.94c-114.98,0 -208.53,93.56 -208.53,208.53 0,42.29 12.68,81.74 34.38,114.63 10.85,16.45 23.97,31.3 38.9,44.04 4.17,3.57 10.44,3.09 14,-1.08 3.57,-4.17 3.09,-10.43 -1.08,-14 -13.52,-11.54 -25.44,-24.99 -35.26,-39.87 -19.64,-29.77 -31.08,-65.38 -31.08,-103.72 0,-104.22 84.44,-188.67 188.67,-188.67 104.22,0 188.65,84.45 188.65,188.67 0,38.34 -11.42,73.95 -31.07,103.72 -9.81,14.88 -21.65,28.33 -35.17,39.87 -4.2,3.53 -4.73,9.81 -1.19,14 3.57,4.17 9.84,4.65 14,1.08 14.94,-12.74 28.07,-27.59 38.93,-44.04 21.7,-32.89 34.36,-72.34 34.36,-114.63 0,-114.97 -93.53,-208.53 -208.51,-208.53z"/>
 </g>
</svg>
